<svg xmlns="http://www.w3.org/2000/svg" viewBox="0 0 64 64" role="img" aria-labelledby="title">
  <title id="title">StudyMate mark</title>
  <path fill="#8b6cff" d="M32 6c8.9 0 16.7 4.5 21.3 11.4l-7.4 4.3A16 16 0 0 0 32 14a18 18 0 0 0-18 18c0 3.9 1.2 7.5 3.2 10.4l-7.4 4.3A26 26 0 0 1 32 6Z"/>
  <path fill="#8b6cff" d="M53.3 46.6A25.9 25.9 0 0 1 32 58c-8.9 0-16.7-4.5-21.3-11.4l7.4-4.3A16 16 0 0 0 32 50a18 18 0 0 0 18-18c0-3.9-1.2-7.5-3.2-10.4l7.4-4.3A25.7 25.7 0 0 1 58 32c0 5.3-1.6 10.3-4.7 14.6Z"/>
  <path fill="#8b6cff" d="M24 21.5h8c6.1 0 10.8 3.7 10.8 9.4 0 5.8-4.6 9.6-10.9 9.6h-3.1V48H24V21.5Zm7.7 14.3c3.7 0 6-1.7 6-4.8s-2.3-4.7-6-4.7h-2.9v9.5h2.9Z"/>
</svg>
